<?xml version="1.0" encoding="utf-8"?>
<svg xmlns="http://www.w3.org/2000/svg" fill="none" height="60" viewBox="0 0 73 60" width="73">
<g clip-path="url(#clip0_2160_3234)">
<path d="M3.23291 26.0257C1.74531 25.8968 0.461013 27.0175 0.461013 28.4704V30.8952C0.461013 32.115 1.37837 33.1613 2.623 33.3249C5.97506 33.7613 8.88085 35.1993 10.7751 37.2076C13.2445 38.5315 14.8511 40.6737 14.8511 43.0985C14.8511 45.8357 12.8032 48.2208 9.77341 49.4604C9.5701 49.5447 9.36184 49.5943 9.15358 49.6191C7.38333 50.8885 5.12713 51.7712 2.61804 52.0985C1.37341 52.2621 0.456055 53.3084 0.456055 54.5282V56.953C0.456055 58.4009 1.74035 59.5266 3.22796 59.3976C14.618 58.396 23.4792 51.2952 23.4792 42.7117C23.4792 34.1282 14.623 27.0274 3.23291 26.0257Z" fill="#FFDD00"/>
<path d="M13.1006 42.7089C13.1006 40.661 12.2378 38.7618 10.77 37.2048C10.4477 37.0313 10.1155 36.8775 9.76839 36.7337C8.27583 36.1189 6.61963 37.1999 6.61963 38.7767V47.4147C6.61963 48.7734 7.84938 49.7651 9.14855 49.6164C11.5783 47.8808 13.0957 45.4263 13.0957 42.7089H13.1006Z" fill="#04A64B"/>
<g style="mix-blend-mode:hard-light">
<path d="M14.8464 43.0979C14.8464 40.6731 13.2398 38.526 10.7703 37.207C12.2381 38.7641 13.1009 40.6632 13.1009 42.7112C13.1009 45.4285 11.5836 47.8831 9.15381 49.6186C9.36207 49.5938 9.56538 49.5442 9.77364 49.4599C12.8034 48.2203 14.8513 45.8351 14.8513 43.0979H14.8464Z" fill="white"/>
</g>
<path d="M14.8464 43.0979C14.8464 40.6731 13.2398 38.526 10.7703 37.207C12.2381 38.7641 13.1009 40.6632 13.1009 42.7112C13.1009 45.4285 11.5836 47.8831 9.15381 49.6186C9.36207 49.5938 9.56538 49.5442 9.77364 49.4599C12.8034 48.2203 14.8513 45.8351 14.8513 43.0979H14.8464Z" fill="#74B959"/>
<path d="M37.0215 18.7702V20.9124C37.0215 21.7553 37.6116 22.4843 38.4347 22.6727C46.2942 24.4529 52.0512 30.195 52.0512 37.0082C52.0512 43.8214 46.2942 49.5636 38.4347 51.3438C37.6116 51.5322 37.0215 52.2562 37.0215 53.1041C37.0215 54.1504 37.9091 54.9686 38.9504 54.9041C51.2628 54.1206 60.9818 45.914 60.9818 35.9421C60.9818 25.9702 51.2628 17.7636 38.9504 16.9801C37.9091 16.9157 37.0215 17.7338 37.0215 18.7801V18.7702Z" fill="#04A64B"/>
<path d="M16.5621 17.6541C16.5621 12.7004 13.8893 8.61441 6.98686 8.16813C6.27281 8.1235 5.71743 7.55325 5.71743 6.85904C5.71743 6.1797 5.18686 5.61441 4.49264 5.54995C4.1257 5.51524 3.75876 5.49044 3.39181 5.47061C2.61826 5.43094 1.97363 6.03094 1.97363 6.78466V10.3698C1.97363 10.9946 2.42487 11.5202 3.04967 11.6541C7.17529 12.5219 12.248 13.2954 12.248 18.5714C12.248 22.7218 7.17529 24.7797 3.04967 25.6475C2.42487 25.7814 1.97363 26.307 1.97363 26.9318V30.4227C1.97363 31.1764 2.62322 31.7764 3.39181 31.7367C3.76372 31.7169 4.13066 31.6921 4.49264 31.6574C5.18686 31.5929 5.71743 31.0276 5.71743 30.3483V28.459C5.71743 27.7648 6.27281 27.1946 6.98686 27.1499C13.8893 26.6987 16.5621 22.6177 16.5621 17.664V17.6541Z" fill="#04A64B"/>
<path d="M2.96533 2.47051V4.35976C2.96533 5.11348 3.51079 5.76307 4.27442 5.91183C12.1934 7.45894 18 12.5515 18 18.5961C18 24.6408 12.1885 29.7333 4.27442 31.2804C3.51575 31.4292 2.96533 32.0788 2.96533 32.8325C2.96533 33.7399 3.7488 34.4589 4.68103 34.4143C17.1025 33.7945 26.9356 26.5151 26.9356 17.649C26.9356 8.78291 17.1025 1.50852 4.68103 0.888689C3.7488 0.844061 2.96533 1.56307 2.96533 2.47051Z" fill="#E30613"/>
<path d="M19.1353 18.4624C19.1353 12.4376 13.3634 7.35993 5.48902 5.79299C4.77497 5.64919 4.10059 6.18473 4.10059 6.89878C4.10059 7.49382 4.57662 7.98473 5.18654 8.01944C12.1733 8.41117 16.5419 12.5219 16.5419 17.5153C16.5419 22.5087 12.1733 26.6244 5.18654 27.0112C4.57662 27.0459 4.10059 27.5368 4.10059 28.1318V30.0211C4.10059 30.7302 4.77001 31.2657 5.48902 31.1269C13.3684 29.5599 19.1353 24.4822 19.1353 18.4575V18.4624Z" fill="#3AB9EC"/>
<path d="M44.6083 57.5837L44.3901 55.0647C44.3108 54.1325 43.5868 53.3787 42.6397 53.2052C34.7108 51.7473 28.4876 45.6531 27.8182 37.8928C27.1488 30.1325 32.2364 23.1159 39.8033 20.3887C40.7058 20.0614 41.2909 19.2035 41.2066 18.2713V18.2118C41.0975 17.0068 39.957 16.1391 38.7322 16.3473C26.7223 18.3953 18.0347 28.511 19.0165 39.8465C19.9934 51.1821 30.2975 59.7506 42.486 59.8151C43.7256 59.8201 44.7025 58.7787 44.5984 57.5787L44.6083 57.5837Z" fill="#E30613"/>
<path d="M37.542 45.1177C37.9486 43.4119 39.5255 39.6334 45.5057 40.3822C46.0511 40.4516 46.4428 40.9226 46.4081 41.4532C46.2842 43.2086 45.7437 46.9028 43.3288 47.5474C41.0776 48.1474 39.0445 47.0863 38.0528 46.4119C37.6263 46.1243 37.428 45.6136 37.542 45.1226V45.1177Z" fill="white"/>
<path d="M29.886 45.0301C29.1075 44.5987 27.8083 40.7458 28.567 37.4929C28.6612 37.0913 29.1125 36.8979 29.4695 37.1012C30.6447 37.7756 32.9703 39.3772 33.5307 41.7822C34.2893 45.0301 30.9472 45.6202 29.886 45.0301Z" fill="white"/>
<path d="M33.0692 33.3199C32.6378 33.3497 32.2708 33.0224 32.251 32.5959C32.1717 30.7513 32.4692 26.1348 37.2047 24.8455C39.5254 24.2108 42.3369 27.6819 40.9683 30.4141C39.8725 32.6059 34.9634 33.1811 33.0642 33.3249L33.0692 33.3199Z" fill="white"/>
<path d="M50.7819 36.2329C50.7819 34.2296 50.2364 30.4907 46.5174 28.5866C46.2149 28.4329 45.8331 28.537 45.6546 28.8197C45.0794 29.7469 44.5835 32.1618 49.6761 36.699C50.0976 37.0759 50.7769 36.7883 50.7769 36.2329H50.7819Z" fill="white"/>
<path d="M62.2807 34.6744C62.2807 24.6381 54.332 16.1538 43.4179 13.3967C42.208 13.0893 41.0278 13.9868 41.0278 15.2067C41.0278 16.1736 41.7865 16.9868 42.7782 17.0662C52.5568 17.81 60.2427 24.7075 60.2427 33.0827C60.2427 41.4579 52.5568 48.3554 42.7782 49.0992C41.7865 49.1736 41.0278 49.9918 41.0278 50.9587V54.1521C41.0278 55.367 42.208 56.2645 43.4179 55.962C54.332 53.205 62.2807 44.7207 62.2807 34.6843V34.6744Z" fill="#FFDD00"/>
<path d="M59.0971 32.6143C59.0971 25.697 53.4591 19.8507 45.7236 17.9614C44.8806 17.7581 44.0674 18.3631 44.0674 19.2061C44.0674 19.8805 44.6029 20.4408 45.2971 20.4904C52.2145 21.0011 57.6542 25.7466 57.6542 31.5135C57.6542 37.2805 52.2145 42.0309 45.2971 42.5367C44.6029 42.5862 44.0674 43.1416 44.0674 43.821V46.0176C44.0674 46.8606 44.8856 47.4705 45.7236 47.2623C53.4591 45.373 59.0971 39.5267 59.0971 32.6094V32.6143Z" fill="#E30613"/>
<path d="M50.4941 14.1786L50.261 14.248C49.1503 13.6083 48.6891 12.2149 49.2296 11.1339L54.2081 2.06451C54.5751 1.33558 55.2544 0.646326 56.0032 0.472773C56.5486 0.343847 57.104 0.621533 57.3916 1.13724C57.5304 1.39013 57.7139 1.61327 57.9271 1.79674C58.7304 2.50583 58.5569 3.78517 58.061 4.76699L53.5536 12.7058C53.147 13.5191 52.7652 13.9455 52.1304 13.8414C51.6147 13.7521 51.3222 13.7868 50.9007 14.0199C50.7718 14.0893 50.6379 14.1438 50.499 14.1835L50.4941 14.1786Z" fill="#FFDD00"/>
<path d="M72.119 21.9652L72.2728 22.0545C72.5009 22.9669 72.0149 23.914 71.1868 24.1669L64.0364 26.076C63.481 26.2446 62.7868 26.2297 62.3207 25.9222C61.9785 25.6991 61.8496 25.2627 61.9686 24.8512C62.0281 24.6479 62.0529 24.4396 62.043 24.2363C62.0033 23.4528 62.7521 22.9024 63.5009 22.6743L68.0777 21.4148C68.6976 21.2264 69.5901 21.271 70.0513 21.4495C70.7802 21.7272 71.5042 21.7272 71.8314 21.8363C71.9306 21.871 72.0248 21.9156 72.119 21.9702V21.9652Z" fill="#FFDD00"/>
<path d="M56.757 19.0919C57.119 19.3547 57.5752 19.5034 58.0463 19.5034C58.4182 19.5034 58.7802 19.4092 59.0926 19.2307L58.9884 19.2803C59.2612 19.1414 59.4744 18.9778 59.7124 18.7249L59.6529 18.7894L59.5884 18.8588C59.7273 18.7249 59.8661 18.5861 60 18.4472C60.119 18.3233 60.238 18.2043 60.362 18.0852L60.3868 18.0605C60.8132 17.6489 61.2496 17.2224 61.7008 16.8158C62.8165 15.8142 63.7587 14.9811 64.7405 14.158C65.4496 13.5877 66.1835 13.0472 66.9372 12.5018C67.4876 12.1051 67.8149 11.4753 67.8149 10.8158C67.8149 10.2555 67.5719 9.70508 67.1554 9.30839C66.7339 8.91169 66.1537 8.68359 65.5587 8.68359C64.9636 8.68359 65.0083 9.23401 64.5074 9.57616C64.0215 9.90343 63.357 10.0621 63.0099 10.3596C62.5438 10.7563 61.9587 11.034 61.4975 11.4505L61.0066 11.8919C59.9355 12.8588 60.0595 12.9679 59.0231 13.9993C58.9388 14.0836 57.5554 15.5365 57.4711 15.6208C57.1983 15.8935 56.9851 15.6952 56.7174 15.9828C56.524 16.1315 56.3653 16.31 56.2413 16.5133C56.1967 16.5877 56.1521 16.672 56.1124 16.7613C55.7355 17.5448 56.0182 18.5464 56.757 19.0869V19.0919Z" fill="#FFDD00"/>
</g>
<defs>
<clipPath id="clip0_2160_3234">
<rect fill="white" height="60" width="72.3967"/>
</clipPath>
</defs>
</svg>